<svg xmlns="http://www.w3.org/2000/svg" xmlns:xlink="http://www.w3.org/1999/xlink" viewBox="0 0 408.71 298.89"><defs><style>.cls-1{fill:#ccc;}.cls-1,.cls-10,.cls-11,.cls-12,.cls-13,.cls-14,.cls-15,.cls-16,.cls-17,.cls-19,.cls-2,.cls-20,.cls-21,.cls-22,.cls-3,.cls-4,.cls-5,.cls-6,.cls-7,.cls-8,.cls-9{stroke:#000;}.cls-2{fill:#b3b3b3;}.cls-3{fill:#7f7f7f;}.cls-4{fill:#252525;}.cls-5{fill:#fff;}.cls-6{fill:#404040;}.cls-7{fill:#333;}.cls-8{fill:#ffeea4;}.cls-9{fill:#1b73b2;}.cls-10{fill:#fc4a00;}.cls-11{fill:#ff0;}.cls-12{fill:none;}.cls-13{fill:url(#linear-gradient);}.cls-14{fill:#d0258f;}.cls-15,.cls-18{fill:#e6e6e6;}.cls-16{fill:#f6a573;}.cls-17{fill:#f8e9ca;}.cls-19{fill:#a6a6a6;}.cls-20{fill:url(#linear-gradient-2);}.cls-21{fill:url(#linear-gradient-3);}.cls-22{fill:url(#linear-gradient-4);}</style><linearGradient id="linear-gradient" x1="168.47" y1="271.41" x2="-0.43" y2="173.89" gradientUnits="userSpaceOnUse"><stop offset="0.01"/><stop offset="0.08" stop-color="#3b3b3b"/><stop offset="0.26" stop-color="#ccc"/><stop offset="0.28" stop-color="#5f3a0d"/><stop offset="0.3" stop-color="#7f4000"/><stop offset="0.33" stop-color="#5f3a0d"/><stop offset="0.36" stop-color="#c1c1c1"/><stop offset="0.43" stop-color="#fff"/><stop offset="0.51" stop-color="#5f3a0d"/><stop offset="0.54" stop-color="#9f5500"/><stop offset="0.57" stop-color="#5f3a0d"/><stop offset="0.65" stop-color="#b2b2b2"/><stop offset="0.78" stop-color="#e2e2e2"/><stop offset="0.79" stop-color="#7f2d00"/><stop offset="0.81" stop-color="#3f1600"/><stop offset="0.83" stop-color="#c4c4c4"/><stop offset="1"/></linearGradient><linearGradient id="linear-gradient-2" x1="226.69" y1="424.92" x2="235.32" y2="424.92" gradientTransform="translate(128.15 -197.11)" gradientUnits="userSpaceOnUse"><stop offset="0"/><stop offset="0.3" stop-color="#fff"/><stop offset="0.71" stop-color="#a7a7a7"/><stop offset="1"/></linearGradient><linearGradient id="linear-gradient-3" x1="257.08" y1="412.9" x2="295.45" y2="412.9" gradientTransform="matrix(0.93, -0.36, 0.36, 0.93, -29.45, -38.9)" gradientUnits="userSpaceOnUse"><stop offset="0"/><stop offset="0.08" stop-color="#fff"/><stop offset="0.6"/><stop offset="0.88" stop-color="#fff"/><stop offset="1"/></linearGradient><linearGradient id="linear-gradient-4" x1="346.6" y1="139.29" x2="346.6" y2="111.64" gradientUnits="userSpaceOnUse"><stop offset="0"/><stop offset="0.35" stop-color="#fff"/><stop offset="0.42"/><stop offset="0.88" stop-color="#fff"/><stop offset="1"/></linearGradient></defs><title>julio_2</title><g id="レイヤー_2" data-name="レイヤー 2"><path class="cls-1" d="M97.13,243.24l10.46-28.36-15.22-5.61L81.5,238.78l-27.39,4.7,2.74,16,28.41-4.87,15.58,22.61,13.35-9.2Zm-32.38,9.81c-3.62.71-6.85-.27-7.23-2.19s2.24-4.05,5.86-4.77,6.86.27,7.23,2.19S68.36,252.34,64.75,253.05ZM95,226.92c-1.87-.58-2.5-3.9-1.41-7.42s3.49-5.9,5.36-5.33,2.5,3.9,1.41,7.42S96.9,227.5,95,226.92Zm11.3,43.91c-1.7,1-4.57-.82-6.41-4s-2-6.57-.26-7.55,4.57.82,6.41,4S108,269.86,106.34,270.84Z"/><circle class="cls-2" cx="87.83" cy="244.46" r="13.27"/><circle class="cls-3" cx="87.83" cy="244.46" r="6.39"/><path class="cls-4" d="M89,196.82a48.39,48.39,0,1,0,48.4,48.39A48.39,48.39,0,0,0,89,196.82Zm0,82.68a34.29,34.29,0,1,1,34.29-34.29A34.29,34.29,0,0,1,89,279.5Z"/><path class="cls-5" d="M89,210.93a34.29,34.29,0,1,0,34.29,34.29A34.29,34.29,0,0,0,89,210.93Zm0,64.89a30.6,30.6,0,1,1,30.6-30.6A30.6,30.6,0,0,1,89,275.81Z"/><path class="cls-2" d="M160.7,232.87c1.33-5.59-14.62-20.21-14.62-20.21s-21.54,11.17-23.13,11.17-35.36,8.24-34.83,9.84,18.08,13.83,20.74,19.15S132,266.64,134.9,266.37s16-4.52,16.75-4.79S159.37,238.45,160.7,232.87Zm-39.35,19.94a1.55,1.55,0,0,1-.41-.58c-2.37-2.46-11.32-11.14-15.81-17.77,0,0,8.24-4.52,10.9-2.39,2.46,2,3.33,16.87,4.91,20.16C121.52,252.84,121.71,253.07,121.34,252.81Z"/><circle class="cls-6" cx="119.48" cy="228.35" r="2.13"/><circle class="cls-6" cx="125.6" cy="250.15" r="2.13"/><circle class="cls-7" cx="148.76" cy="235.14" r="24.13"/><circle class="cls-3" cx="148.76" cy="235.14" r="16.42"/><circle class="cls-3" cx="148.76" cy="235.14" r="10.68"/><circle class="cls-3" cx="148.76" cy="235.14" r="6.13"/><circle class="cls-3" cx="148.76" cy="235.14" r="3.17"/><rect class="cls-1" x="52.73" y="151.53" width="4.79" height="7.98" transform="translate(-60.68 37.99) rotate(-25.06)"/><rect class="cls-1" x="67.89" y="145.14" width="4.79" height="7.98" transform="translate(-56.53 43.78) rotate(-25.05)"/><path class="cls-1" d="M38.37,155.91s34.7-14,35.5-16,1.6-9.17,1.6-9.17l8.78.8L81,142.75l-33.9,13.16Z"/><path class="cls-7" d="M28.4,214.94l-.11.28c-1.11,2.72-10,24.55-12.65,26l5.58,2s12-23.13,11.57-26.72"/><path class="cls-7" d="M294.78,246.61S291.7,268.14,278,270s-82.59,2.18-90.42-.26S179,249.59,179,249.59Z"/><path class="cls-8" d="M212.41,214.55s39.09,3.19,44.67,3.19,25.53-.53,25.53-.53L298,247s-43.61-2.13-56.64-2.66-54.51-2.92-54.51-2.92Z"/><path class="cls-8" d="M212.14,212.15s13,10.63,13,12S214.8,237.68,214,237.68s-12.23-18.88-12.23-18.88Z"/><path class="cls-8" d="M214,237.68s-30.84,6.91-38,.27-7.18-13.3-7.18-13.3L202,218Z"/><path class="cls-8" d="M161.88,224.92s7.45,21.27,12.76,24.46,41.48,4.79,59.3,4.79,62.75-6.38,62.75-6.38L298,247s-39.89-2.66-62.75-4-55.84-1.86-59.3-5.05-7.18-13.3-7.18-13.3Z"/><path class="cls-8" d="M189.8,167.48s17.82,1.33,21.8-3.72l2.66,54.78a8.72,8.72,0,0,1-6.65,5.32c-5.05.8-19.94.53-19.94.53Z"/><line class="cls-9" x1="195.65" y1="203.38" x2="204.43" y2="203.38"/><line class="cls-9" x1="195.65" y1="207.9" x2="204.43" y2="207.9"/><line class="cls-9" x1="195.65" y1="211.62" x2="204.43" y2="211.62"/><line class="cls-9" x1="195.65" y1="215.61" x2="204.43" y2="215.61"/><line class="cls-9" x1="195.65" y1="219.86" x2="204.43" y2="219.86"/><path class="cls-10" d="M29.46,172.93s-7.18,0-7.71,1.06-.27,10.1,1.33,11.43,7.71,1.6,7.71,1.6Z"/><path class="cls-5" d="M28.4,171.6l.53,17,4.25-.8s3.19.27,3.19-2.92,0-15,0-15l-8,1.2"/><ellipse class="cls-11" cx="24.58" cy="176.03" rx="2.66" ry="1.46" transform="translate(-144.79 122.14) rotate(-64.4)"/><path class="cls-8" d="M29.33,190s2.79-21.14,8.37-24.73,37.49-18.35,45.87-18.75,23.53-3.59,69-.8,52.65,2.79,59.43,11.57l.27,10.63-22.73,3.59s2.13-6.25-3.86-7.84-37.09-11.17-81.37-5.58-56.64,8.38-63,12.76-5.18,18.35-5.18,18.35Z"/><line class="cls-12" x1="76" y1="147.94" x2="72.81" y2="161.5"/><path class="cls-5" d="M34.25,188.09s2.06-15.16,5.36-17.55,27.62-9.17,53.18-12.37,84.09-3.59,94.4,3.59,7,54.64,4.53,63.82c0,0-86.17,3.59-103.48.4S36.31,196.07,34.25,188.09Z"/><path class="cls-5" d="M73.06,167.88s-2.42,13.16-.81,16.75"/><path class="cls-5" d="M67,167.48s-2.42,13.16-.81,16.75"/><path class="cls-5" d="M61.38,168.68S59,180.9,60.57,184.23"/><path class="cls-5" d="M56.14,170.27s-2.42,11-.8,14"/><path class="cls-5" d="M51.31,172.27s-2.42,9.4-.81,12"/><path class="cls-5" d="M46.87,173.86s-2.42,8.15-.8,10.37"/><path d="M140.76,220.23v-.85h-.84v-2.56h.8v2.61h2.61v-.88h.88v-4.31h-2.56v-.8h5.08v.8H145v4.27h-.85v.88h-.88v.85Z"/><path d="M150.89,220.23v-.85H150v-4.24h.83v4.29h1.72v-.88h.88v-3.4h.8v3.4h.87v.88H156v.8h-.8v-.85h-.88v-.88h-.88v.88h-.88v.85Z"/><path d="M162.87,220.24v-6H162v-.8h1.68v6.8Z"/><path d="M172,216v-.85h-.89v-.88h-.84V212.6h.84v-.88h.84v.88h.88v-.88h.83v.88h.85v1.63h-.85v.88h-.87V216Zm.83-.88v-.8h.88v-1.72h-.92v.84H172v-.84H171v1.72h.87v.88h.88Zm-.83,5.16v-3.36h.8v3.36Z"/><path d="M180.74,220.23v-.88h-.88v-2.52h.88V216h2.52v.84h.84v2.52h-.84v.88Zm2.56-.92v-2.52h-2.6v2.6h2.6Z"/><path class="cls-1" d="M18.56,202,17,206.84s8,6.78,32.71,9.17c26.28,2.54,39.49,2.39,39.49,2.39L82,208s-21.59,1.06-35.1-1.6C24.54,202,23.35,196.47,18.56,202Z"/><path class="cls-2" d="M21.36,200.45s5.18-12,11.17-12,45.07,8.78,49.86,12.76,11.17,18.35,10,19.94-63.82,4-73.79-8.78l1.2-3.59s21.94,5.58,31.11,6l36.69,1.59-4-5.18s-22.74-.8-37.89-2.39S23,208.43,21.36,200.45Z"/><path class="cls-13" d="M170.61,245.28l9.67,5.67s-32,23.58-38.67,23-34.51-15.82-43-18.93a109.45,109.45,0,0,1-24.64-13C60,231.83,54.07,233.39,48.14,229.22c-16.22-11.4-22.9-23.77-30.72-28.12s-23.48-20-13.91-33.91,27.54,0,40.29,10.14l-4.06,5.79L20.9,168.35s-6.67-5.22-11.3.87S5.53,182,8.43,186.33s29,4.64,48.41,18.26,40.58,32.75,46.66,38,18.55,23.19,34.49,21.16C147.64,262.49,170.61,245.28,170.61,245.28Z"/><path class="cls-2" d="M86.4,217.83S91.33,223,91,225.08s-.29,8.7-.29,8.7l5.51,1.74s2.32-7.54.87-13.33-7.83-9.28-7.83-9.28Z"/><rect class="cls-14" x="56.51" y="166" width="15.21" height="62.61" transform="translate(-127.48 117.74) rotate(-49.45)"/><rect class="cls-15" x="54.02" y="191.44" width="17.54" height="8" transform="translate(-128.25 120.31) rotate(-50.72)"/><path class="cls-16" d="M94.21,119.62s-.8-4.39,2.39-4.79a139.15,139.15,0,0,1,21.94.4c6,.8,15.55,2.39,21.54,2.39s36.69,3.19,48.66,2.39,17.55-.8,20.74,0,4.79,7.18,3.59,8.77-47.86-1.2-61-2S94.21,119.62,94.21,119.62Z"/><path class="cls-17" d="M99.8,147.14s-10-20.74-9.57-24.73.8-4.39,2-4.39,47.07,4.79,59.43,5.58,50.26,3.19,53.85,1.59,4.39-2.39,6.78-1.2a4.26,4.26,0,0,1,2.39,4.39c0,1.2-.8,19.14-2,20.34s-2.39,3.19-6,3.59-35.5-4.39-57-4.79S99.8,147.14,99.8,147.14Z"/><polygon class="cls-2" points="308.4 19.77 316.38 32.53 296.16 49.02 300.42 58.06 303.08 56.47 299.36 50.08 319.56 32.53 309.99 17.64 308.4 19.77"/><path d="M314.28,15.1c1-7.66-2.52-14.4-7.76-15s-10.25,5-11.2,12.69,2.52,14.4,7.75,15S313.33,22.76,314.28,15.1Z"/><ellipse class="cls-18" cx="304.81" cy="13.92" rx="12.67" ry="8.66" transform="translate(253.35 314.68) rotate(-82.91)"/><polygon class="cls-7" points="282.72 93.09 284.85 102.05 298.22 98.41 297.61 84.73 282.72 93.09"/><path class="cls-7" d="M279.83,97.26l23.7-11.4s-.91-9.12,3.19-11.39A7.7,7.7,0,0,1,314,74l-8.66-17.78S288.95,59,285.3,60.34s-10.94,10.94-10.94,10.94S277.1,86.32,279.83,97.26Z"/><path class="cls-8" d="M279.38,97.26s-10-20.06-9.57-24.62,3.19-10,8.21-14.13,20.06-7.75,26.44-5.47,11.4,18.23,11.4,18.23H304s.46-1.82-3.65-6.84-9.57-5.93-16-2.28-5,17.78-2.28,23.7S279.38,97.26,279.38,97.26Z"/><path class="cls-2" d="M283.12,58.31s1.48,14.25,6.68,21.42c3.48,4.81,11.75,6,12.63,2,.49-2.26-6.46-1.76-8.78-4.9C288.45,69.77,283.12,58.31,283.12,58.31Z"/><circle class="cls-3" cx="280.59" cy="62.55" r="7.29"/><path class="cls-2" d="M273,56.32l4.25-.76s8.66-.15,8.66,6.38-4.71,7-8.81,7l-6.38-5.62Z"/><circle class="cls-3" cx="270.26" cy="60.42" r="5.47"/><path class="cls-1" d="M366.76,248l10.46-28.36L362,214.06l-10.88,29.51-27.39,4.7,2.74,16,28.41-4.87L370.46,282l13.35-9.2Zm-32.39,9.81c-3.62.71-6.85-.27-7.23-2.19s2.24-4.05,5.86-4.77,6.85.27,7.23,2.19S338,257.13,334.37,257.84Zm30.29-26.13c-1.87-.58-2.5-3.9-1.41-7.42s3.49-5.91,5.36-5.33,2.5,3.9,1.41,7.42S366.53,232.29,364.66,231.71ZM376,275.62c-1.7,1-4.56-.82-6.41-4s-2-6.57-.26-7.55,4.56.82,6.41,4S377.66,274.64,376,275.62Z"/><circle class="cls-2" cx="357.46" cy="249.25" r="13.27"/><circle class="cls-3" cx="357.46" cy="249.24" r="6.39"/><path class="cls-4" d="M358.62,201.61A48.39,48.39,0,1,0,407,250,48.4,48.4,0,0,0,358.62,201.61Zm0,82.68A34.29,34.29,0,1,1,392.91,250,34.29,34.29,0,0,1,358.62,284.29Z"/><path class="cls-5" d="M358.62,215.71A34.29,34.29,0,1,0,392.91,250,34.29,34.29,0,0,0,358.62,215.71Zm0,64.89a30.6,30.6,0,1,1,30.6-30.6A30.6,30.6,0,0,1,358.62,280.6Z"/><path class="cls-8" d="M280.48,98.88l37.22-16s16.62,67.41,15.82,81.37S298,248,298,248l-15.16-29.51s14-33.9,16.75-55S280.48,98.88,280.48,98.88Z"/><ellipse class="cls-7" cx="304.99" cy="130.89" rx="6.98" ry="9.17" transform="translate(-22.68 78.16) rotate(-14.08)"/><ellipse class="cls-1" cx="303.37" cy="131.29" rx="5.31" ry="7.71" transform="translate(-22.84 77.8) rotate(-14.09)"/><rect class="cls-19" x="353.64" y="250.5" width="10.37" height="4.39" transform="translate(-76.01 193.29) rotate(-27.37)"/><rect class="cls-20" x="354.85" y="199.5" width="8.64" height="56.61" transform="translate(-60.04 155.97) rotate(-22.66)"/><path class="cls-21" d="M382.36,235l-17.06,6.68-6.59,5.92,3,7.73,9.24.84,18-7.05,8.72-7.12-2.52-6.44Zm-4.23,14.51a2.79,2.79,0,1,1,1.58-3.62A2.79,2.79,0,0,1,378.12,249.48Z"/><path class="cls-22" d="M340.84,111.64l9.57.8s4.25-.27,3.45,12.5-6.38,14.36-6.38,14.36l-8.24-.53Z"/><path class="cls-8" d="M322.22,107.39l17.55,1.33s7.71,3.19,6.65,15.42-5.05,17-5.05,17h-10.9Z"/><path class="cls-8" d="M317.7,82.92s10.64,22.07,16.75,37.76,7.71,30.31,13,33.77,46.8,22.6,53.18,27.12,8,13.3,7.45,17-6.65,2.93-6.65,2.93.8-9-4.79-10.37-46-15.69-48.39-13.3-23.4,71-29,73.39S298,248,298,248s14.89-29.51,17.55-35.1,13-34.57,13.56-44.94-8-42.81-10.9-49.72S310.26,98.88,317.7,82.92Z"/><path class="cls-5" d="M317.7,82.92s-6.91,9-4.52,20.74,12.77,42.54,13.83,48.13,1.59,17,.53,22.34-10.37,27.79-13.56,36-16.93,33.72-16.93,33.72l1,4.17s16.75-27.39,19.94-36.69,10.63-27.39,12-36.7,1.33-17.55-1.07-26.86-11.31-38.05-12-40.68C316.11,103.93,313.71,97.81,317.7,82.92Z"/><path class="cls-5" d="M327.81,230.23s12.5-44.14,14.36-48.39,3.19-5.32,6.38-5.32,10.1.53,23.67,4.26,24.73,7.18,27.39,10.1,5.58,11.43,3.72,14.62S360,228.64,353.07,230.76,327.81,230.23,327.81,230.23Z"/><path class="cls-10" d="M343.76,149.4s7.18,0,7.71,1.06.26,10.1-1.33,11.44-7.71,1.6-7.71,1.6Z"/><path class="cls-5" d="M344.83,148.07l-.53,17-4.26-.8s-3.19.27-3.19-2.93-.54-8,.53-12.23c.54-2.13,7.45-1.59,7.45-1.59"/><ellipse class="cls-11" cx="348.64" cy="152.5" rx="1.46" ry="2.66" transform="translate(-31.67 165.56) rotate(-25.59)"/></g></svg>