<svg xmlns="http://www.w3.org/2000/svg" xmlns:xlink="http://www.w3.org/1999/xlink" viewBox="0 0 438.43 305.94"><defs><style>.cls-1{fill:#1a1a1a;}.cls-1,.cls-10,.cls-11,.cls-12,.cls-13,.cls-2,.cls-3,.cls-4,.cls-5,.cls-6,.cls-7,.cls-8,.cls-9{stroke:#000;}.cls-14,.cls-2{fill:#4d4d4d;}.cls-3{fill:#ff002d;}.cls-4{fill:#111;}.cls-5{fill:#fff;}.cls-6{fill:#b3b3b3;}.cls-7{fill:#404040;}.cls-8{fill:#252525;}.cls-9{fill:#333;}.cls-10{fill:#e6e6e6;}.cls-11{fill:#ccc;}.cls-12{fill:#7f7f7f;}.cls-13{fill:url(#linear-gradient);}</style><linearGradient id="linear-gradient" x1="169.35" y1="267" x2="0.45" y2="169.48" gradientUnits="userSpaceOnUse"><stop offset="0.01"/><stop offset="0.08" stop-color="#3b3b3b"/><stop offset="0.26" stop-color="#ccc"/><stop offset="0.28" stop-color="#5f3a0d"/><stop offset="0.3" stop-color="#7f4000"/><stop offset="0.33" stop-color="#5f3a0d"/><stop offset="0.36" stop-color="#c1c1c1"/><stop offset="0.43" stop-color="#fff"/><stop offset="0.51" stop-color="#5f3a0d"/><stop offset="0.54" stop-color="#9f5500"/><stop offset="0.57" stop-color="#5f3a0d"/><stop offset="0.65" stop-color="#b2b2b2"/><stop offset="0.78" stop-color="#e2e2e2"/><stop offset="0.79" stop-color="#7f2d00"/><stop offset="0.81" stop-color="#3f1600"/><stop offset="0.83" stop-color="#c4c4c4"/><stop offset="1"/></linearGradient></defs><title>zx_2</title><g id="レイヤー_2" data-name="レイヤー 2"><path class="cls-1" d="M381.83,193.23a56.1,56.1,0,1,0,56.11,56.1A56.1,56.1,0,0,0,381.83,193.23Zm0,89.34a33.24,33.24,0,1,1,33.24-33.24A33.24,33.24,0,0,1,381.83,282.58Z"/><path class="cls-2" d="M381.83,210.52a38.82,38.82,0,1,0,38.82,38.82A38.82,38.82,0,0,0,381.83,210.52Zm0,72.59a33.77,33.77,0,1,1,33.77-33.77A33.77,33.77,0,0,1,381.83,283.11Z"/><path class="cls-3" d="M381.83,213.18A36.16,36.16,0,1,0,418,249.34,36.16,36.16,0,0,0,381.83,213.18Zm26.59,22.33a21.62,21.62,0,0,1,1.86,11.17l-18.61,1.86,7.44-24.2S405.76,229.93,408.42,235.51Zm-23.66-16.75a33.17,33.17,0,0,1,10.64,3.74L385,242.77l-14.25-21.16S378.65,217.76,384.75,218.76Zm-27.23,12.56a23.57,23.57,0,0,1,9.22-7.39l9.82,18.15-23.72,2.21S354,236.38,357.52,231.32Zm-3.89,29.84a23.57,23.57,0,0,1-1.39-11.74l20.48,0-10.29,23.34S356,266.85,353.64,261.16Zm24.37,17a23.54,23.54,0,0,1-11-4.34l9.67-18.05,15.68,20.12S384.16,278.72,378,278.15Zm26.92-12.92a23.55,23.55,0,0,1-9.54,7l-10.11-17.82,25.38-2.52S408.7,260.33,404.93,265.23Z"/><path class="cls-4" d="M168.84,235.67s7,27.52,10.37,29.91,16-4.59,24.33-4.19,68.4,8.37,78.38,7.38c0,0,8.78-5.38,13.76-5.18S168.84,235.67,168.84,235.67Z"/><polygon class="cls-4" points="361.02 203.23 380.17 247.63 388.68 244.97 368.46 196.31 361.02 203.23"/><rect class="cls-5" x="386.95" y="255.96" width="2.17" height="4.79" transform="translate(-73.07 189.8) rotate(-25.2)"/><rect class="cls-5" x="390.31" y="254.38" width="2.17" height="4.79" transform="translate(-72.11 191.3) rotate(-25.23)"/><path class="cls-5" d="M385.48,229.82c0-1.06-1.86-.8-1.86-.8L373,233.8c1.06,6.12,12,24.73,12,24.73s8-1.59,8-4.52S385.48,230.88,385.48,229.82Zm2.39,25.79a1.33,1.33,0,1,1,1.33-1.33A1.33,1.33,0,0,1,387.88,255.61Z"/><path class="cls-1" d="M86.94,183.66a52.92,52.92,0,1,0,52.92,52.91A52.91,52.91,0,0,0,86.94,183.66Zm0,84.26a31.35,31.35,0,1,1,31.35-31.35A31.35,31.35,0,0,1,86.94,267.92Z"/><path class="cls-2" d="M86.94,200a36.61,36.61,0,1,0,36.61,36.61A36.61,36.61,0,0,0,86.94,200Zm0,68.46a31.85,31.85,0,1,1,31.85-31.85A31.85,31.85,0,0,1,86.94,268.42Z"/><path class="cls-3" d="M86.94,202.47A34.11,34.11,0,1,0,121,236.57,34.11,34.11,0,0,0,86.94,202.47ZM112,223.54a20.4,20.4,0,0,1,1.76,10.53l-17.55,1.76,7-22.82S109.51,218.27,112,223.54ZM89.7,207.73a31.33,31.33,0,0,1,10,3.53L90,230.38l-13.43-20S83.94,206.79,89.7,207.73ZM64,219.58a22.22,22.22,0,0,1,8.7-7L82,229.73l-22.37,2.08S60.67,224.36,64,219.58Zm-3.67,28.14A22.23,22.23,0,0,1,59,236.65l19.32,0-9.7,22S62.63,253.09,60.35,247.72Zm23,16A22.24,22.24,0,0,1,73,259.65l9.12-17,14.78,19S89.15,264.29,83.34,263.75Zm25.39-12.19a22.17,22.17,0,0,1-9,6.58l-9.53-16.8L114.14,239S112.29,246.94,108.73,251.56Z"/><path class="cls-1" d="M71.05,182.35c4.16-4.42,22.34-.53,31.11,2.79s32,17.42,32.31,18.48c0,0,14.23.53,14.36,2.39s-23.4,12.9-26.19,12.36-12.5-14.62-22.6-19.15S68.93,184.61,71.05,182.35Z"/><path class="cls-6" d="M163.46,228.49c1.33-5.58-14.62-20.21-14.62-20.21s-21.54,11.17-23.13,11.17-35.37,8.25-34.83,9.84,18.08,13.83,20.74,19.14,23.13,13.83,26.06,13.56,16-4.52,16.75-4.79S162.13,234.07,163.46,228.49ZM124.1,248.43a1.54,1.54,0,0,1-.41-.58c-2.37-2.46-11.32-11.14-15.81-17.77,0,0,8.24-4.52,10.9-2.39,2.46,2,3.33,16.87,4.91,20.17C124.27,248.45,124.47,248.69,124.1,248.43Z"/><circle class="cls-7" cx="122.24" cy="223.97" r="2.13"/><circle class="cls-7" cx="128.36" cy="245.77" r="2.13"/><circle class="cls-4" cx="150.16" cy="235.4" r="22.07"/><circle class="cls-1" cx="147.77" cy="237" r="18.08"/><circle class="cls-8" cx="148.03" cy="237.79" r="15.42"/><circle class="cls-9" cx="146.44" cy="238.86" r="12.23"/><circle class="cls-9" cx="146.44" cy="238.59" r="9.57"/><circle class="cls-9" cx="146.44" cy="238.59" r="6.12"/><circle class="cls-9" cx="146.44" cy="238.59" r="3.19"/><path class="cls-9" d="M156.28,178.72s59,26.63,61.69,26.37,10.1,3.72,10.1,3.72,31.38,12.76,47.86,13.56,31.91-1.06,58.5-28.19c0,0,25-25,30.58-20.74s-23.13,47.33-35.63,53.18-59,22.6-73.66,18.35-73.12-23.67-83.23-34.3S156.28,178.72,156.28,178.72Z"/><path class="cls-9" d="M156.28,178.72s39.88,12.54,43.87,12,17.82,0,19.14-1.86c0,0,6.38,10.37,8,14.36s3.19,9.84,4.25,12,6.38,3.19,5.32,5.05-12.23,1.86-18.88.27S177,200.83,169.84,195.78,156.28,178.72,156.28,178.72Z"/><path class="cls-2" d="M295.08,1.94h3.19s-4.19,22.94-5.38,23.73-3,1-3-.2S294.68,10.31,295.08,1.94Z"/><path class="cls-2" d="M294.28,23.08s4.39,5.58,3.59,10c0,0,2.79-6.78,2-12.76S294.28,23.08,294.28,23.08Z"/><path class="cls-2" d="M298.27,1.94s4.79,15.56,3.59,18.35-9,5.38-9,5.38Z"/><rect class="cls-9" x="293.85" y="76.07" width="20.49" height="10.37" transform="translate(-7.24 127.6) rotate(-23.43)"/><path class="cls-9" d="M313.42,77.72,291.89,88.09s22.07,36.69,21,37.49-10.9-.26-12.23,3.72,12.89,30,12.63,37.23-10.24,55.84-11.83,58-2.92,6.12,1.6,5.32,25.26-15.42,37.22-30.58,24.2-22.07,25.26-22.33,6.91-1.06,3.72-11.44S313.42,77.72,313.42,77.72Z"/><path class="cls-9" d="M318.21,124.52s-1.86,4.79-5.59,4.79-9.84-3.19-12,0,15,31.11,12.63,37.23,38.69-16,45.34-17.55S331.5,121.86,328,120.53,318.21,124.52,318.21,124.52Z"/><path class="cls-9" d="M282,39.16s-2.66,18.61-1.86,19.68c.2.27,11.17,26.86,11.17,26.86l23.13-10.64s-3.72-5.05.8-8.51c4.82-3.69,11-1.64,12-2.13,3.19-1.6-13.29-22.34-25-26.32S283.64,36.24,282,39.16Z"/><path class="cls-5" d="M278.72,57.38s-.4-17.55,7.58-19.15S308.24,53.79,311,55s24.33,16,25.93,15.16S340.54,61,333,47s-23.53-17.15-31.51-16.75-16.35,2-19.14,5.58S278.72,57.38,278.72,57.38Z"/><path class="cls-10" d="M309.84,41.42c-1-.66,22.34,2.79,22.73,4.39s6.78,15.16,6.78,18.75-11.56-2-12.76-4S323.79,50.6,309.84,41.42Z"/><circle class="cls-3" cx="284.31" cy="47.41" r="7.18"/><path class="cls-3" d="M271.94,46.21l10.77-2.39s3.59.8,3.59,3.19-2.39,5.58-2.39,5.58l-10,1.2Z"/><ellipse class="cls-3" cx="269.95" cy="50.2" rx="3.99" ry="4.99"/><ellipse class="cls-9" cx="269.28" cy="50.4" rx="2.26" ry="2.86"/><path class="cls-11" d="M301.19,49.8s-2.66-1.06-5.85,3.46S294,60.7,294,60.7s3.72.8,4.52-1.06-1.33-2.92-1.33-2.92,1.07-3.19,3.46-3.19,4.79-1.06,4.79-2.66-6.38-3.72-7.71-2.93S301.19,49.8,301.19,49.8Z"/><path class="cls-1" d="M307,89.29c1.59-3.59,8.78-8.38,12-7.18s6,6,13.56,14.76,36.69,33.1,46.27,42.68,41.48,46.27,40.68,50.26,1.2,6-5.58,3.19-12.77-8.77-21.94-8-60.62,47.46-64.61,53.85-6.78,10-6.38,24.73a127.43,127.43,0,0,1-37.09.4c-20.34-2.79-114.47-27.52-114.47-27.52s-36.3-48.26-68.2-65.41c0,0,6-8.38,12.37-8s42.68,15.64,42.68,15.64S159.47,193,171,201.37s61.82,45.87,112.48,38.29,81.77-58.63,82.17-69.4S324.91,132,317.55,118.54C310.77,106.17,307,89.29,307,89.29Z"/><path class="cls-5" d="M317.55,118.54h0c2.39,0,48.93,25.79,68.47,40.55S420.32,185,414.73,193a4,4,0,0,0,4.39.8c2.39-1.2.8-.8,1.2-4s-24.73-36.3-47.07-57S337,103.65,331.37,94.07s-5.19-16.75-11.17-18.35-20.34,8.77-19.94,10S317.55,118.54,317.55,118.54Z"/><path class="cls-1" d="M67.73,142.73a9.8,9.8,0,0,0-8.77,0c-4.39,2.39-11.17,17.55-14,21.54S67.33,151.11,67.73,142.73Z"/><path class="cls-4" d="M67.73,142.73.32,200.17S8.7,197.38,12.69,195s52.25-37.09,55-37.49,23.93,1.2,23.93,1.2Z"/><path class="cls-5" d="M215,151l3.46-.81s-8.51,18-6.65,22.21,7.45,13.56,7.45,16.48-8.78,2.93-8.78,2.93l-12.23-21Z"/><path class="cls-5" d="M157.61,139.14S209.72,153.9,215,151s-12,18.75-12,25.39S157.61,139.14,157.61,139.14Z"/><path class="cls-5" d="M54.44,94.21c-.46-1.64,15.42-3.72,23.13,1.06s39.35,22.34,48.13,26.32,58.5,26.86,69.4,40.42,17.55,28.45,19.94,31.38-63.55-5.05-73.39-13.56-11.43-23.13-20.21-30.58S58.69,109.36,54.44,94.21Z"/><path class="cls-5" d="M55.23,94.21c-5.82-5.12-.8,40.42,13,50.79s33,26.06,33,26.06,7.44-3.19,13.83-2.13,30.58,13.56,30.58,13.56-6.38-18.88-12.23-25a208.48,208.48,0,0,0-25-21.27C99.9,130.1,87.94,122.92,55.23,94.21Z"/><path class="cls-10" d="M52.31,108s17,19.68,17.28,21.27,2.92,3.72,0,7.18-8,1.33-8,1.33S55.5,131.43,52.31,108Z"/><path class="cls-3" d="M95,122.92c-1,1.59-41.22-19.68-41.22-19.68s-7.45-11.91-12-19.94c-2.39-4.25,4.79-4.52,8-3.46,0,0,25.77,9.61,36.7,15.16a77.79,77.79,0,0,1,13.29,8.24S78,92.88,78,93.41s28.58,13.83,29,15.29S70.67,95.8,70.4,96.87,95.93,121.46,95,122.92Z"/><path class="cls-12" d="M101.83,91.88c-2.08.92,43.47,23.93,47.46,27.52s17.35,22.74,17.35,22.74,41.48,11.76,49.86,9.37S231.39,133,229,128s-12.3-22.2-20.08-23.6-25.13,3.39-42.68,3.19S105.42,90.28,101.83,91.88Z"/><path class="cls-12" d="M150.89,118.4s64.61,12,67.41,11.57,10.7.27,10.7-1.93-2.39-4,0,0,2.66,21.67-14.29,23.86S166,141.54,166,141.54Z"/><path class="cls-12" d="M91.06,102.25s7.78-10.37,10.77-10.37,49.06,25.53,49.66,27.12S168,141.94,168,141.94,107.62,118.2,91.06,102.25Z"/><path class="cls-13" d="M171.49,240.87l9.67,5.67s-32,23.58-38.67,23-34.51-15.83-43-18.93a109.44,109.44,0,0,1-24.64-13C60.9,227.42,55,229,49,224.81,32.79,213.41,26.12,201,18.29,196.7s-23.48-20-13.91-33.91,27.54,0,40.29,10.14l-4.06,5.8L21.77,163.95s-6.67-5.22-11.3.87-4.06,12.75-1.16,17.1,29,4.64,48.41,18.26,40.58,32.75,46.66,38,18.55,23.19,34.49,21.16C148.52,258.08,171.49,240.87,171.49,240.87Z"/><path class="cls-6" d="M87.28,213.42s4.93,5.22,4.64,7.25-.29,8.69-.29,8.69l5.51,1.74s2.32-7.54.87-13.33-7.83-9.28-7.83-9.28Z"/><rect class="cls-3" x="57.39" y="161.59" width="15.21" height="62.61" transform="translate(-123.82 116.87) rotate(-49.45)"/><rect class="cls-10" x="54.9" y="187.04" width="17.54" height="8" transform="translate(-124.52 119.37) rotate(-50.72)"/><path class="cls-14" d="M82.76,144.22l.82-1.33L82.18,142l1.64-2.66,1.41.87.82-1.33,1.33.82.91-1.46L87,137.44l.79-1.28L89,137l-.82,1.33,1.43.89.82-1.33,1.33.82,1.71-2.76-6.76-4.19.79-1.28,6.71,4.15-.82,1.33,1.33.82-1.65,2.66-1.33-.82-.82,1.33-1.33-.82-.9,1.46,1.33.82-.79,1.28L88,141.86l.84-1.35-1.43-.89L86.54,141l-1.36-.84-1.71,2.76,6.79,4.2-.79,1.28Z"/><path class="cls-14" d="M95.42,152.07l1.65-2.66,1.33.82.83-1.34,1.33.82.87-1.41,1.38.86.86-1.38-1.38-.86.86-1.38-1.33-.82.82-1.33-1.33-.82.79-1.28,1.28.79-.82,1.33,1.33.82-.82,1.33,1.38.86-.86,1.38,1.38.86.86-1.38,1.41.87.82-1.33,1.33.82,1.68-2.71,1.28.79-1.64,2.66-1.33-.82-.82,1.33-1.35-.84-.86,1.38-1.38-.86-.86,1.38,1.38.86-.87,1.41,1.36.84-.83,1.34,1.33.82-.78,1.26-1.28-.79.82-1.33-1.33-.82.84-1.36-1.41-.87.86-1.38-1.38-.86-.86,1.38-1.38-.86L99.71,151l-1.33-.82-1.69,2.72Z"/></g></svg>