<svg xmlns="http://www.w3.org/2000/svg" viewBox="0 0 413.04 305.94"><defs><style>.cls-1{fill:#1a1a1a;}.cls-1,.cls-10,.cls-11,.cls-13,.cls-14,.cls-15,.cls-16,.cls-2,.cls-3,.cls-4,.cls-5,.cls-6,.cls-7,.cls-8,.cls-9{stroke:#000;}.cls-2{fill:#4d4d4d;}.cls-3{fill:#ccb450;}.cls-4{fill:#9ff;}.cls-5{fill:#b3b3b3;}.cls-6{fill:#404040;}.cls-7{fill:#111;}.cls-8{fill:#f01c86;}.cls-9{fill:#333;}.cls-10,.cls-17{fill:#fff;}.cls-11{fill:#252525;}.cls-12{fill:#ccecf4;}.cls-13{fill:#ff0;}.cls-14{fill:#ccc;}.cls-15{fill:#06f;}.cls-16{fill:#e6e6e6;}</style></defs><title>zx_6</title><g id="レイヤー_2" data-name="レイヤー 2"><path class="cls-1" d="M61.55,183.66a52.91,52.91,0,1,0,52.91,52.91A52.91,52.91,0,0,0,61.55,183.66Zm0,84.26a31.35,31.35,0,1,1,31.35-31.35A31.35,31.35,0,0,1,61.55,267.92Z"/><path class="cls-2" d="M61.55,200a36.61,36.61,0,1,0,36.61,36.61A36.61,36.61,0,0,0,61.55,200Zm0,68.46a31.85,31.85,0,1,1,31.85-31.85A31.85,31.85,0,0,1,61.55,268.42Z"/><path class="cls-3" d="M61.55,202.47a34.11,34.11,0,1,0,34.11,34.11A34.11,34.11,0,0,0,61.55,202.47Zm25.08,21.07a20.4,20.4,0,0,1,1.76,10.53l-17.55,1.76,7-22.82S84.11,218.27,86.62,223.53Zm-22.32-15.8a31.32,31.32,0,0,1,10,3.53l-9.78,19.11-13.43-20S58.55,206.79,64.31,207.73ZM38.62,219.58a22.24,22.24,0,0,1,8.7-7l9.26,17.12-22.37,2.08S35.27,224.35,38.62,219.58ZM35,247.72a22.22,22.22,0,0,1-1.31-11.07l19.32,0-9.7,22S37.23,253.09,35,247.72Zm23,16a22.23,22.23,0,0,1-10.37-4.1l9.12-17,14.79,19S63.75,264.29,57.94,263.75Zm25.39-12.18a22.22,22.22,0,0,1-9,6.58l-9.53-16.8L88.74,239S86.89,246.94,83.33,251.56Z"/><path class="cls-4" d="M45.66,182.35c4.16-4.42,22.34-.53,31.11,2.79s32,17.42,32.31,18.48c0,0,14.23.53,14.36,2.39s-23.4,12.9-26.19,12.37-12.5-14.63-22.6-19.15S43.53,184.61,45.66,182.35Z"/><path class="cls-5" d="M138.06,228.49c1.33-5.59-14.63-20.21-14.63-20.21s-21.54,11.17-23.13,11.17-35.36,8.24-34.83,9.84,18.08,13.83,20.74,19.15,23.13,13.83,26.06,13.56,16-4.52,16.75-4.79S136.73,234.07,138.06,228.49ZM98.71,248.43a1.57,1.57,0,0,1-.41-.58c-2.37-2.46-11.32-11.15-15.81-17.77,0,0,8.24-4.52,10.9-2.39,2.46,2,3.33,16.86,4.91,20.16C98.88,248.45,99.07,248.69,98.71,248.43Z"/><circle class="cls-6" cx="96.85" cy="223.96" r="2.13"/><circle class="cls-6" cx="102.96" cy="245.77" r="2.13"/><path class="cls-1" d="M44.83,145.34s-5.42-4.94-9.36-8-25.32-4.23-25.32-4.23Z"/><circle class="cls-7" cx="124.77" cy="235.4" r="22.07"/><circle class="cls-1" cx="122.37" cy="236.99" r="18.08"/><circle class="cls-8" cx="122.64" cy="237.79" r="15.42"/><circle class="cls-8" cx="121.04" cy="238.85" r="12.23"/><circle class="cls-8" cx="121.04" cy="238.59" r="9.57"/><circle class="cls-8" cx="121.04" cy="238.59" r="6.12"/><circle class="cls-9" cx="121.04" cy="238.59" r="3.19"/><path class="cls-7" d="M143.44,235.66s7,27.52,10.37,29.92,16-4.59,24.33-4.19,68.4,8.38,78.37,7.38c0,0,8.78-5.38,13.76-5.18S143.44,235.66,143.44,235.66Z"/><path class="cls-1" d="M356.43,193.23a56.11,56.11,0,1,0,56.11,56.1A56.1,56.1,0,0,0,356.43,193.23Zm0,89.34a33.24,33.24,0,1,1,33.24-33.24A33.24,33.24,0,0,1,356.43,282.57Z"/><path class="cls-2" d="M356.43,210.51a38.82,38.82,0,1,0,38.82,38.82A38.82,38.82,0,0,0,356.43,210.51Zm0,72.59a33.77,33.77,0,1,1,33.77-33.77A33.77,33.77,0,0,1,356.43,283.11Z"/><path class="cls-3" d="M356.43,213.17a36.16,36.16,0,1,0,36.17,36.16A36.16,36.16,0,0,0,356.43,213.17ZM383,235.51a21.64,21.64,0,0,1,1.86,11.17l-18.61,1.86,7.45-24.2S380.36,229.93,383,235.51Zm-23.66-16.75A33.26,33.26,0,0,1,370,222.5l-10.37,20.27-14.25-21.16S353.25,217.76,359.36,218.76Zm-27.23,12.56a23.57,23.57,0,0,1,9.22-7.39l9.82,18.15-23.72,2.2S328.57,236.38,332.13,231.32Zm-3.89,29.84a23.57,23.57,0,0,1-1.39-11.74l20.48,0-10.29,23.34S330.65,266.85,328.24,261.16Zm24.37,17a23.56,23.56,0,0,1-11-4.34l9.67-18.05L367,275.87S358.77,278.72,352.61,278.15Zm26.92-12.92a23.54,23.54,0,0,1-9.54,7l-10.11-17.81,25.38-2.52S383.3,260.33,379.53,265.23Z"/><polygon class="cls-7" points="335.63 203.23 354.77 247.63 363.28 244.97 343.07 196.31 335.63 203.23"/><rect class="cls-10" x="361.55" y="255.96" width="2.16" height="4.79" transform="translate(-75.49 178.98) rotate(-25.2)"/><rect class="cls-10" x="364.91" y="254.38" width="2.16" height="4.79" transform="translate(-74.62 180.99) rotate(-25.29)"/><path class="cls-10" d="M360.09,229.82c0-1.06-1.86-.8-1.86-.8l-10.63,4.79c1.06,6.12,12,24.73,12,24.73s8-1.6,8-4.52S360.09,230.88,360.09,229.82Zm2.39,25.79a1.33,1.33,0,1,1,1.33-1.33A1.33,1.33,0,0,1,362.48,255.61Z"/><path class="cls-9" d="M130.88,178.72s59,26.63,61.69,26.37,10.1,3.72,10.1,3.72,31.38,12.76,47.86,13.56,31.91-1.06,58.5-28.18c0,0,25-25,30.58-20.74S316.48,220.77,304,226.62s-59,22.6-73.66,18.35-73.12-23.67-83.23-34.3S130.88,178.72,130.88,178.72Z"/><path class="cls-9" d="M130.88,178.72s39.88,12.54,43.87,12,17.82,0,19.14-1.86c0,0,6.38,10.37,8,14.36s3.19,9.84,4.26,12,6.38,3.19,5.32,5.05-12.23,1.86-18.88.26-40.95-19.67-48.13-24.73S130.88,178.72,130.88,178.72Z"/><path class="cls-9" d="M269.68,1.94h3.19s-4.19,22.93-5.38,23.73-3,1-3-.2S269.28,10.31,269.68,1.94Z"/><path class="cls-9" d="M268.88,23.08s4.39,5.58,3.59,10c0,0,2.79-6.78,2-12.76S268.88,23.08,268.88,23.08Z"/><path class="cls-9" d="M272.87,1.94s4.79,15.55,3.59,18.35-9,5.38-9,5.38Z"/><rect class="cls-9" x="268.45" y="76.06" width="20.49" height="10.37" transform="translate(-9.33 117.48) rotate(-23.42)"/><path class="cls-9" d="M288,77.72,266.49,88.09s22.07,36.69,21,37.49-10.9-.27-12.23,3.72,12.9,30,12.63,37.23-10.24,55.84-11.83,58-2.92,6.11,1.6,5.32,25.26-15.42,37.22-30.58,24.2-22.07,25.26-22.33,6.91-1.06,3.72-11.44S288,77.72,288,77.72Z"/><path class="cls-9" d="M292.82,124.52s-1.86,4.78-5.59,4.78-9.84-3.19-12,0,15,31.11,12.63,37.23,38.69-16,45.33-17.55-27.12-27.12-30.58-28.45S292.82,124.52,292.82,124.52Z"/><path class="cls-11" d="M256.65,39.16S254,57.78,254.79,58.84C255,59.11,266,85.7,266,85.7l23.13-10.63s-3.72-5.05.79-8.51c4.83-3.69,11-1.64,12-2.13,3.19-1.59-13.29-22.33-25-26.32S258.25,36.24,256.65,39.16Z"/><path class="cls-1" d="M253.33,57.38s-.4-17.55,7.58-19.14S282.84,53.79,285.64,55s24.33,16,25.92,15.16,3.59-9.17-4-23.13S284,29.86,276.06,30.25s-16.35,2-19.14,5.59S253.33,57.38,253.33,57.38Z"/><path class="cls-12" d="M283.44,40.42c-1-.66,22.34,2.79,22.73,4.38S313,60,313,63.56s-11.56-2-12.76-4S297.4,49.6,283.44,40.42Z"/><circle class="cls-13" cx="258.91" cy="47.41" r="7.18"/><path class="cls-13" d="M246.55,46.21l10.77-2.39s3.59.8,3.59,3.19-2.39,5.59-2.39,5.59l-10,1.2Z"/><ellipse class="cls-13" cx="244.55" cy="50.8" rx="3.99" ry="4.99"/><ellipse class="cls-13" cx="244.09" cy="51.09" rx="2.26" ry="2.86"/><path class="cls-14" d="M275.8,49.8s-2.66-1.06-5.85,3.46-1.33,7.45-1.33,7.45,3.72.8,4.52-1.07-1.33-2.92-1.33-2.92,1.06-3.19,3.46-3.19,4.79-1.06,4.79-2.66-6.38-3.72-7.71-2.92S275.8,49.8,275.8,49.8Z"/><path class="cls-1" d="M281.65,89.29c1.59-3.59,8.77-8.38,12-7.18s6,6,13.56,14.76,36.7,33.1,46.27,42.68,41.48,46.27,40.68,50.26,1.2,6-5.58,3.19-12.77-8.78-21.94-8S306,232.47,302,238.86s-6.78,10-6.38,24.73a127.55,127.55,0,0,1-37.09.4C238.17,261.19,144,236.46,144,236.46s-36.29-48.26-68.2-65.41c0,0,6-8.37,12.36-8s42.68,15.64,42.68,15.64,3.19,14.27,14.76,22.65,61.82,45.87,112.48,38.29,81.76-58.63,82.16-69.4S299.52,132,292.15,118.54C285.37,106.17,281.65,89.29,281.65,89.29Z"/><path class="cls-1" d="M292.15,118.54h0c2.39,0,48.93,25.79,68.47,40.55S394.92,185,389.34,193a4,4,0,0,0,4.39.8c2.39-1.2.8-.8,1.2-4s-24.73-36.3-47.06-57S311.56,103.64,306,94.07s-5.19-16.75-11.17-18.35-20.34,8.77-19.94,10S292.15,118.54,292.15,118.54Z"/><path class="cls-1" d="M189.64,151l3.72-.92s-8.77,18.08-6.91,22.33,7.44,13.56,7.44,16.49-8.77,2.93-8.77,2.93l-12.23-21Z"/><path class="cls-1" d="M132.21,139.14S184.33,153.9,189.64,151s-12,18.75-12,25.4S132.21,139.14,132.21,139.14Z"/><path class="cls-1" d="M29,94.2c-.46-1.64,15.42-3.72,23.13,1.06s39.35,22.34,48.13,26.32,58.5,26.86,69.4,40.42,17.55,28.45,19.94,31.38-63.55-5.05-73.39-13.56S104.82,156.69,96,149.25,33.29,109.36,29,94.2Z"/><path class="cls-1" d="M29.84,94.2C24,89.09,29,134.62,42.87,145s33,26.06,33,26.06,7.44-3.19,13.83-2.13,30.58,13.56,30.58,13.56-6.38-18.88-12.23-25a208.08,208.08,0,0,0-25-21.27C74.51,130.1,62.54,122.92,29.84,94.2Z"/><path class="cls-9" d="M26.91,108s17,19.68,17.28,21.27,2.92,3.72,0,7.18-8,1.33-8,1.33S30.1,131.43,26.91,108Z"/><path class="cls-15" d="M51.41,114.66C50,115.86,18.3,83.21,18.3,83.21s-3.4-13.63-5.21-22.67c-1-4.79,5.95-2.82,8.65-.82,0,0,21.53,17.1,30.21,25.76A77.78,77.78,0,0,1,62,97.43s-17.53-16.6-17.69-16.1,22.91,22,22.83,23.5S36.66,81.35,36.08,82.28,52.75,113.56,51.41,114.66Z"/><path class="cls-9" d="M76.44,91.88c-2.08.92,43.47,23.93,47.46,27.52s17.35,22.73,17.35,22.73,41.48,11.77,49.86,9.37S206,133,203.61,128s-12.3-22.2-20.08-23.6-25.13,3.39-42.68,3.19S80,90.28,76.44,91.88Z"/><path class="cls-9" d="M125.5,118.4s64.62,12,67.41,11.57,10.7.27,10.7-1.93-2.39-4,0,0,2.66,21.67-14.29,23.87-48.66-10.37-48.66-10.37Z"/><path class="cls-9" d="M65.67,102.25s7.78-10.37,10.77-10.37S125.5,117.4,126.1,119s16.55,22.93,16.55,22.93S82.22,118.2,65.67,102.25Z"/><rect class="cls-9" x="0.62" y="219.23" width="7.41" height="1.59" transform="translate(-25.51 1.99) rotate(-6.67)"/><path class="cls-9" d="M20.81,201.68l62.75,35.9S91,247.15,90.48,249s-4.25,10.9-5.58,11.43S70,262.57,69.47,261.78,7.25,222.69,7.25,222.69s-3.72-7.18.53-13S20.81,201.68,20.81,201.68Z"/><path class="cls-9" d="M89.95,250.08c-.8,0-5.32,7.18-4.25,9.31s16.86,7.32,20.74,6.12c7.71-2.39,22.34-7.18,22.34-7.18s-16.49.53-20.47,0S89.95,250.08,89.95,250.08Z"/><path class="cls-9" d="M22.41,201.95s-7.71,5.58-9.57,8.78-5.32,13-5.32,13l60.09,38.55s4.52-9.31,7.71-13.56,8.24-11.17,8.24-11.17Z"/><rect class="cls-14" x="26.52" y="208.6" width="10.64" height="31.7" transform="translate(-174.67 130.92) rotate(-57.56)"/><circle class="cls-16" cx="22.94" cy="218.7" r="3.19"/><circle class="cls-16" cx="38.89" cy="229.6" r="3.19"/><path class="cls-17" d="M54.43,139.61l.82-1.33-1.41-.87,1.64-2.66,1.41.87.82-1.33,1.33.82.91-1.46-1.33-.82.79-1.28,1.28.79-.82,1.33,1.43.89.82-1.33,1.33.82,1.71-2.76-6.76-4.19.79-1.28L65.9,130l-.82,1.33,1.33.82-1.65,2.66L63.44,134l-.82,1.33-1.33-.82-.91,1.46,1.33.82L60.92,138l-1.27-.79.84-1.35L59,135l-.84,1.36-1.36-.84-1.71,2.76,6.79,4.2-.79,1.28Z"/><path class="cls-17" d="M67.08,147.46l1.65-2.66,1.33.82.83-1.34,1.33.82.87-1.41,1.38.86.86-1.38-1.38-.86.86-1.38-1.33-.82.82-1.33L73,138l.79-1.28,1.28.79-.82,1.33,1.33.82L74.71,141l1.38.86-.86,1.38,1.38.86.86-1.38,1.41.87.82-1.33L81,143l1.68-2.71,1.28.79-1.65,2.66L81,142.95l-.82,1.33-1.35-.84L78,144.82,76.6,144l-.86,1.38,1.38.86-.87,1.41,1.36.84-.83,1.34,1.33.82-.78,1.26-1.28-.79.82-1.33-1.33-.82.84-1.36L75,146.71l.86-1.38-1.38-.86-.86,1.38L72.21,145l-.84,1.36L70,145.53l-1.69,2.72Z"/></g></svg>