<svg xmlns="http://www.w3.org/2000/svg" xmlns:xlink="http://www.w3.org/1999/xlink" viewBox="0 0 394.26 298.89"><defs><style>.cls-1{fill:#ccc;}.cls-1,.cls-10,.cls-11,.cls-12,.cls-13,.cls-14,.cls-16,.cls-17,.cls-18,.cls-19,.cls-2,.cls-3,.cls-4,.cls-5,.cls-6,.cls-7,.cls-8,.cls-9{stroke:#000;}.cls-2{fill:#b3b3b3;}.cls-3{fill:#7f7f7f;}.cls-4{fill:#252525;}.cls-5{fill:#fff;}.cls-6{fill:#333;}.cls-7{fill:#404040;}.cls-8{fill:#076dae;}.cls-9{fill:#1b73b2;}.cls-10{fill:#fc4a00;}.cls-11{fill:#ff0;}.cls-12{fill:none;}.cls-13{fill:#f6a573;}.cls-14{fill:#f8e9ca;}.cls-15{fill:#e6e6e6;}.cls-16{fill:#a6a6a6;}.cls-17{fill:url(#linear-gradient);}.cls-18{fill:url(#linear-gradient-2);}.cls-19{fill:url(#linear-gradient-3);}</style><linearGradient id="linear-gradient" x1="336.35" y1="443.61" x2="344.99" y2="443.61" gradientTransform="translate(4.08 -215.84)" gradientUnits="userSpaceOnUse"><stop offset="0"/><stop offset="0.3" stop-color="#fff"/><stop offset="0.71" stop-color="#a7a7a7"/><stop offset="1"/></linearGradient><linearGradient id="linear-gradient-2" x1="359.96" y1="429.21" x2="398.33" y2="429.21" gradientTransform="matrix(0.93, -0.36, 0.36, 0.93, -145.64, -16.6)" gradientUnits="userSpaceOnUse"><stop offset="0"/><stop offset="0.08" stop-color="#fff"/><stop offset="0.6"/><stop offset="0.88" stop-color="#fff"/><stop offset="1"/></linearGradient><linearGradient id="linear-gradient-3" x1="332.16" y1="139.29" x2="332.16" y2="111.64" gradientUnits="userSpaceOnUse"><stop offset="0"/><stop offset="0.35" stop-color="#fff"/><stop offset="0.42"/><stop offset="0.88" stop-color="#fff"/><stop offset="1"/></linearGradient></defs><title>julio_1</title><g id="レイヤー_2" data-name="レイヤー 2"><path class="cls-1" d="M82.69,243.24l10.46-28.36-15.21-5.61L67.05,238.78l-27.39,4.7,2.74,16,28.41-4.87,15.58,22.6L99.74,268ZM50.3,253.05c-3.62.71-6.85-.27-7.23-2.19s2.24-4.06,5.86-4.77,6.86.27,7.23,2.19S53.92,252.34,50.3,253.05Zm30.29-26.13c-1.87-.58-2.5-3.9-1.41-7.42s3.49-5.9,5.36-5.33,2.5,3.9,1.41,7.42S82.46,227.5,80.59,226.92Zm11.3,43.91c-1.7,1-4.57-.82-6.41-4s-2-6.57-.26-7.55,4.57.82,6.41,4S93.59,269.86,91.89,270.84Z"/><circle class="cls-2" cx="73.38" cy="244.46" r="13.27"/><circle class="cls-3" cx="73.38" cy="244.46" r="6.39"/><path class="cls-4" d="M74.55,196.82a48.39,48.39,0,1,0,48.39,48.39A48.39,48.39,0,0,0,74.55,196.82Zm0,82.68a34.29,34.29,0,1,1,34.29-34.29A34.29,34.29,0,0,1,74.55,279.5Z"/><path class="cls-5" d="M74.55,210.93a34.29,34.29,0,1,0,34.29,34.29A34.29,34.29,0,0,0,74.55,210.93Zm0,64.89a30.6,30.6,0,1,1,30.6-30.6A30.6,30.6,0,0,1,74.55,275.81Z"/><circle class="cls-6" cx="134.31" cy="235.14" r="24.13"/><circle class="cls-3" cx="134.31" cy="235.14" r="16.42"/><circle class="cls-3" cx="134.31" cy="235.14" r="10.68"/><circle class="cls-3" cx="134.31" cy="235.14" r="6.13"/><circle class="cls-3" cx="134.31" cy="235.14" r="3.17"/><path class="cls-3" d="M164,239.94s0,.13,0,.35c.08,1.57.08,8-4.81,10.55-5.58,2.92-12,6.91-23.13,5.58s-31.64-12.5-31.64-12.5a37.7,37.7,0,0,0-2.39,7.44,12.46,12.46,0,0,0,1.33,7.71s10.64,3.46,16,4,27.65,2.66,38.29-2.66,16-17.55,16-17.55"/><rect class="cls-7" x="18.94" y="241.93" width="11.7" height="4.52" transform="translate(-93.32 29.03) rotate(-22.97)"/><path class="cls-7" d="M98.75,234.53s13.08,5.87,11.25,17S94.78,261,94.78,261Z"/><path class="cls-7" d="M36.27,223l64.08,10.77-4.42,28.73-68.78-13s-5.25-5-1.11-15.74S36.27,223,36.27,223Z"/><rect class="cls-1" x="38.28" y="151.53" width="4.79" height="7.98" transform="translate(-62.04 31.87) rotate(-25.06)"/><rect class="cls-1" x="53.44" y="145.14" width="4.79" height="7.98" transform="translate(-57.92 37.7) rotate(-25.06)"/><path class="cls-1" d="M23.93,155.91s34.7-14,35.5-16S61,130.79,61,130.79l8.78.8L66.6,142.75,32.7,155.91Z"/><path class="cls-6" d="M14,214.94l-.11.28c-1.11,2.72-10,24.55-12.65,26l5.58,2s12-23.13,11.57-26.72"/><path class="cls-6" d="M280.33,246.61S277.25,268.14,263.5,270s-82.59,2.18-90.42-.26-8.49-20.13-8.49-20.13Z"/><path class="cls-8" d="M198,214.55s39.09,3.19,44.67,3.19,25.53-.53,25.53-.53L283.58,247s-43.61-2.13-56.64-2.66-54.51-2.92-54.51-2.92Z"/><path class="cls-8" d="M197.69,212.15s13,10.64,13,12-10.37,13.56-11.17,13.56-12.23-18.88-12.23-18.88Z"/><path class="cls-8" d="M199.55,237.68s-30.84,6.91-38,.27-7.18-13.3-7.18-13.3L187.59,218Z"/><path class="cls-8" d="M147.44,224.92s7.44,21.27,12.76,24.46,41.48,4.79,59.29,4.79,62.75-6.38,62.75-6.38l1.33-.8s-39.88-2.66-62.75-4-55.84-1.86-59.29-5.05-7.18-13.3-7.18-13.3Z"/><path class="cls-8" d="M175.36,167.48s17.82,1.33,21.8-3.72l2.66,54.78a8.71,8.71,0,0,1-6.65,5.32c-5.05.8-19.94.53-19.94.53Z"/><line class="cls-9" x1="181.21" y1="203.38" x2="189.98" y2="203.38"/><line class="cls-9" x1="181.21" y1="207.9" x2="189.98" y2="207.9"/><line class="cls-9" x1="181.21" y1="211.62" x2="189.98" y2="211.62"/><line class="cls-9" x1="181.21" y1="215.61" x2="189.98" y2="215.61"/><line class="cls-9" x1="181.21" y1="219.86" x2="189.98" y2="219.86"/><path class="cls-10" d="M15,172.93s-7.18,0-7.71,1.06S7,184.1,8.64,185.43s7.71,1.6,7.71,1.6Z"/><path class="cls-5" d="M14,171.6l.53,17,4.25-.8s3.19.27,3.19-2.92,0-15,0-15l-8,1.2"/><ellipse class="cls-11" cx="10.14" cy="176.03" rx="2.66" ry="1.46" transform="translate(-152.99 109.11) rotate(-64.4)"/><path class="cls-8" d="M14.88,190s2.79-21.14,8.38-24.73,37.49-18.35,45.87-18.75,23.53-3.59,69-.8,52.65,2.79,59.43,11.57l.27,10.63-22.74,3.59s2.13-6.25-3.85-7.84S134.14,152.46,89.87,158s-56.64,8.38-63,12.76-5.19,18.35-5.19,18.35Z"/><line class="cls-12" x1="61.55" y1="147.94" x2="58.36" y2="161.5"/><path class="cls-5" d="M19.8,188.09s2.06-15.16,5.36-17.55,27.62-9.17,53.18-12.36,84.09-3.59,94.4,3.59,7,54.64,4.53,63.82c0,0-86.17,3.59-103.48.4S21.87,196.07,19.8,188.09Z"/><path class="cls-5" d="M58.61,167.88s-2.42,13.16-.8,16.75"/><path class="cls-5" d="M52.57,167.48s-2.42,13.16-.81,16.75"/><path class="cls-5" d="M46.93,168.68s-2.42,12.22-.81,15.56"/><path class="cls-5" d="M41.69,170.27s-2.42,11-.81,14"/><path class="cls-5" d="M36.86,172.27s-2.42,9.4-.8,12"/><path class="cls-5" d="M32.43,173.86S30,182,31.62,184.23"/><path d="M126.32,220.23v-.85h-.84v-2.56h.8v2.61h2.6v-.88h.89v-4.31H127.2v-.8h5.08v.8h-1.72v4.27h-.85v.88h-.88v.85Z"/><path d="M136.45,220.23v-.85h-.88v-4.24h.83v4.29h1.72v-.88H139v-3.4h.8v3.4h.87v.88h.85v.8h-.8v-.85h-.88v-.88H139v.88h-.88v.85Z"/><path d="M148.42,220.24v-6h-.88v-.8h1.68v6.8Z"/><path d="M157.51,216v-.85h-.88v-.88h-.84V212.6h.84v-.88h.83v.88h.88v-.88h.83v.88H160v1.63h-.85v.88h-.87V216Zm.84-.88v-.8h.88v-1.72h-.92v.84h-.8v-.84h-.92v1.72h.88v.88h.88Zm-.84,5.16v-3.36h.8v3.36Z"/><path d="M166.29,220.23v-.88h-.88v-2.52h.88V216h2.52v.84h.84v2.52h-.84v.88Zm2.56-.92v-2.52h-2.61v2.61h2.61Z"/><path class="cls-1" d="M4.12,202l-1.6,4.79s8,6.78,32.71,9.17c26.28,2.54,39.49,2.39,39.49,2.39L67.53,208s-21.59,1.06-35.1-1.59C10.1,202,8.9,196.47,4.12,202Z"/><path class="cls-2" d="M6.91,200.45s5.18-12,11.17-12,45.07,8.78,49.86,12.76,11.17,18.35,10,19.94-63.82,4-73.79-8.78l1.2-3.59s21.94,5.58,31.11,6l36.69,1.6-4-5.19s-22.74-.8-37.89-2.39S8.5,208.43,6.91,200.45Z"/><path class="cls-13" d="M79.77,119.62s-.8-4.39,2.39-4.79a138.78,138.78,0,0,1,21.94.4c6,.8,15.56,2.39,21.54,2.39s36.69,3.19,48.66,2.39,17.55-.8,20.74,0,4.79,7.18,3.59,8.77-47.87-1.2-61-2S79.77,119.62,79.77,119.62Z"/><path class="cls-14" d="M85.35,147.14s-10-20.74-9.57-24.73.8-4.39,2-4.39,47.07,4.79,59.43,5.58,50.26,3.19,53.85,1.59,4.39-2.39,6.78-1.2a4.26,4.26,0,0,1,2.39,4.39c0,1.2-.8,19.14-2,20.34s-2.39,3.19-6,3.59-35.5-4.39-57-4.79S85.35,147.14,85.35,147.14Z"/><polygon class="cls-2" points="293.95 19.77 301.93 32.53 281.72 49.02 285.97 58.06 288.63 56.47 284.91 50.08 305.12 32.53 295.55 17.64 293.95 19.77"/><ellipse cx="290.36" cy="13.92" rx="13.98" ry="9.55" transform="translate(240.7 300.34) rotate(-82.91)"/><ellipse class="cls-15" cx="290.36" cy="13.92" rx="12.67" ry="8.66" transform="translate(240.7 300.34) rotate(-82.91)"/><polygon class="cls-6" points="268.27 93.08 270.4 102.05 283.77 98.41 283.16 84.73 268.27 93.08"/><path class="cls-6" d="M265.39,97.26l23.7-11.4s-.91-9.12,3.19-11.4a7.7,7.7,0,0,1,7.29-.46l-8.66-17.78S274.5,59,270.86,60.34s-10.94,10.94-10.94,10.94S262.65,86.32,265.39,97.26Z"/><path class="cls-8" d="M264.93,97.26s-10-20.06-9.57-24.62,3.19-10,8.21-14.13S283.62,50.77,290,53s11.4,18.23,11.4,18.23H289.55s.46-1.82-3.65-6.84-9.57-5.93-16-2.28-5,17.78-2.28,23.7S264.93,97.26,264.93,97.26Z"/><path class="cls-2" d="M268.68,58.31s1.47,14.25,6.67,21.42c3.48,4.81,11.75,6,12.62,2,.49-2.26-6.45-1.76-8.77-4.9C274,69.77,268.68,58.31,268.68,58.31Z"/><circle class="cls-3" cx="266.15" cy="62.55" r="7.29"/><path class="cls-2" d="M258.55,56.32l4.25-.76s8.66-.15,8.66,6.38-4.71,7-8.81,7l-6.38-5.62Z"/><circle class="cls-3" cx="255.81" cy="60.42" r="5.47"/><path class="cls-1" d="M352.31,248l10.46-28.36-15.22-5.61-10.88,29.51-27.39,4.69,2.74,16,28.41-4.87L356,282l13.35-9.2Zm-32.38,9.81c-3.62.71-6.85-.27-7.23-2.19s2.25-4.06,5.86-4.77,6.86.27,7.23,2.19S323.54,257.13,319.93,257.84Zm30.29-26.13c-1.87-.58-2.5-3.9-1.41-7.42s3.49-5.91,5.36-5.33,2.5,3.9,1.41,7.43S352.08,232.29,350.21,231.71Zm11.3,43.91c-1.7,1-4.56-.82-6.4-4s-2-6.57-.26-7.55,4.56.82,6.4,4S363.21,274.64,361.51,275.62Z"/><circle class="cls-2" cx="343.01" cy="249.25" r="13.27"/><circle class="cls-3" cx="343.01" cy="249.25" r="6.39"/><path class="cls-4" d="M344.17,201.61A48.39,48.39,0,1,0,392.57,250,48.4,48.4,0,0,0,344.17,201.61Zm0,82.68A34.29,34.29,0,1,1,378.46,250,34.29,34.29,0,0,1,344.17,284.29Z"/><path class="cls-5" d="M344.17,215.71A34.29,34.29,0,1,0,378.46,250,34.29,34.29,0,0,0,344.17,215.71Zm0,64.89a30.6,30.6,0,1,1,30.6-30.6A30.6,30.6,0,0,1,344.17,280.6Z"/><path class="cls-8" d="M266,98.88l37.22-16s16.62,67.41,15.82,81.37S283.58,248,283.58,248l-15.15-29.51s14-33.9,16.75-55S266,98.88,266,98.88Z"/><ellipse class="cls-6" cx="290.54" cy="130.89" rx="6.98" ry="9.17" transform="translate(-23.12 74.66) rotate(-14.09)"/><ellipse class="cls-1" cx="288.92" cy="131.29" rx="5.31" ry="7.71" transform="translate(-23.27 74.3) rotate(-14.09)"/><rect class="cls-16" x="339.2" y="250.5" width="10.37" height="4.39" transform="translate(-77.6 186.46) rotate(-27.35)"/><rect class="cls-17" x="340.4" y="199.5" width="8.63" height="56.61" transform="translate(-61.16 150.44) rotate(-22.67)"/><path class="cls-18" d="M367.91,235l-17.06,6.68-6.59,5.92,3,7.73,9.24.84,18-7.05,8.72-7.13-2.52-6.44Zm-4.23,14.51a2.79,2.79,0,1,1,1.58-3.62A2.79,2.79,0,0,1,363.68,249.48Z"/><path class="cls-19" d="M326.39,111.64l9.57.8s4.25-.27,3.46,12.5S333,139.29,333,139.29l-8.24-.53Z"/><path class="cls-8" d="M307.78,107.39l17.55,1.33s7.71,3.19,6.65,15.42-5.05,17-5.05,17H316Z"/><path class="cls-8" d="M303.25,82.92S313.89,105,320,120.68s7.71,30.31,13,33.77,46.8,22.6,53.18,27.12,8,13.29,7.45,17-6.65,2.93-6.65,2.93.8-9-4.79-10.37-46-15.69-48.39-13.3-23.4,71-29,73.39S283.58,248,283.58,248s14.89-29.51,17.55-35.1,13-34.57,13.56-44.94-8-42.81-10.9-49.72S295.81,98.88,303.25,82.92Z"/><path class="cls-5" d="M303.25,82.92s-6.91,9-4.52,20.74,12.76,42.54,13.83,48.13,1.59,17,.53,22.34-10.37,27.79-13.56,36-16.93,33.72-16.93,33.72l1,4.17s16.75-27.39,19.95-36.69,10.63-27.39,12-36.7,1.33-17.55-1.06-26.86-11.31-38.05-12-40.68C301.66,103.93,299.27,97.81,303.25,82.92Z"/><path class="cls-5" d="M313.36,230.23s12.5-44.14,14.36-48.39,3.19-5.32,6.38-5.32,10.1.53,23.67,4.26,24.72,7.18,27.39,10.1,5.58,11.43,3.72,14.62-43.34,23.13-50.26,25.26S313.36,230.23,313.36,230.23Z"/><path class="cls-10" d="M329.32,149.4s7.18,0,7.71,1.06.27,10.1-1.33,11.44-7.71,1.59-7.71,1.59Z"/><path class="cls-5" d="M330.38,148.07l-.53,17-4.26-.8s-3.19.27-3.19-2.93-.54-8,.53-12.23c.53-2.13,7.45-1.6,7.45-1.6"/><ellipse class="cls-11" cx="334.2" cy="152.5" rx="1.46" ry="2.66" transform="translate(-33.09 159.36) rotate(-25.6)"/></g></svg>