<svg xmlns="http://www.w3.org/2000/svg" viewBox="0 0 413.04 305.94"><defs><style>.cls-1{fill:#1a1a1a;}.cls-1,.cls-10,.cls-11,.cls-13,.cls-14,.cls-15,.cls-17,.cls-2,.cls-3,.cls-4,.cls-5,.cls-6,.cls-7,.cls-8,.cls-9{stroke:#000;}.cls-2{fill:#4d4d4d;}.cls-3{fill:#ccb450;}.cls-4{fill:#9ff;}.cls-5{fill:#b3b3b3;}.cls-6{fill:#404040;}.cls-7{fill:#111;}.cls-8{fill:#f01c86;}.cls-9{fill:#333;}.cls-10,.cls-16{fill:#fff;}.cls-11{fill:#252525;}.cls-12{fill:#ccecf4;}.cls-13{fill:#ff0;}.cls-14{fill:#ccc;}.cls-15{fill:#06f;}.cls-17{fill:#e6e6e6;}</style></defs><title>zx_5</title><g id="レイヤー_2" data-name="レイヤー 2"><path class="cls-1" d="M298.58,236.57a52.91,52.91,0,1,0,52.91-52.91A52.91,52.91,0,0,0,298.58,236.57Zm21.57,0a31.35,31.35,0,1,1,31.35,31.35A31.35,31.35,0,0,1,320.14,236.57Z"/><path class="cls-2" d="M314.88,236.57A36.61,36.61,0,1,0,351.49,200,36.61,36.61,0,0,0,314.88,236.57Zm4.77,0a31.85,31.85,0,1,1,31.85,31.85A31.85,31.85,0,0,1,319.64,236.57Z"/><path class="cls-3" d="M317.38,236.57a34.11,34.11,0,1,0,34.11-34.11A34.1,34.1,0,0,0,317.38,236.57ZM335.19,213l7,22.82-17.55-1.76a20.4,20.4,0,0,1,1.76-10.53C328.92,218.27,335.19,213,335.19,213Zm26.72-2.58-13.43,20-9.78-19.11a31.32,31.32,0,0,1,10-3.53C354.49,206.79,361.91,210.42,361.91,210.42Zm16.92,21.39-22.37-2.08,9.26-17.12a22.24,22.24,0,0,1,8.7,7C377.77,224.35,378.82,231.81,378.82,231.81Zm-9.06,26.82-9.7-22,19.32,0a22.22,22.22,0,0,1-1.31,11.07C375.8,253.09,369.77,258.63,369.77,258.63Zm-28.21,3,14.79-19,9.12,17a22.23,22.23,0,0,1-10.37,4.1C349.29,264.29,341.55,261.6,341.55,261.6ZM324.29,239l23.94,2.37-9.53,16.8a22.22,22.22,0,0,1-9-6.58C326.15,246.94,324.29,239,324.29,239Z"/><path class="cls-4" d="M367.38,182.35c-4.16-4.42-22.34-.53-31.11,2.79s-32,17.42-32.31,18.48c0,0-14.23.53-14.36,2.39s23.4,12.9,26.19,12.37,12.5-14.63,22.6-19.15S369.51,184.61,367.38,182.35Z"/><path class="cls-5" d="M284,257.2c.8.26,13.83,4.52,16.75,4.79s23.4-8.24,26.06-13.56,20.21-17.55,20.74-19.15-33.24-9.84-34.83-9.84-23.13-11.17-23.13-11.17-16,14.63-14.62,20.21S283.22,256.94,284,257.2Zm30.72-9.35c1.59-3.3,2.46-18.2,4.91-20.16,2.66-2.13,10.9,2.39,10.9,2.39-4.49,6.63-13.44,15.31-15.81,17.77a1.57,1.57,0,0,1-.41.58C314,248.69,314.16,248.45,314.74,247.85Z"/><circle class="cls-6" cx="316.19" cy="223.96" r="2.13"/><circle class="cls-6" cx="310.08" cy="245.77" r="2.13"/><path class="cls-1" d="M368.21,145.34s5.42-4.94,9.36-8,25.32-4.23,25.32-4.23Z"/><circle class="cls-7" cx="288.27" cy="235.4" r="22.07"/><circle class="cls-1" cx="290.66" cy="236.99" r="18.08"/><circle class="cls-8" cx="290.4" cy="237.79" r="15.42"/><circle class="cls-8" cx="291.99" cy="238.85" r="12.23"/><circle class="cls-8" cx="291.99" cy="238.59" r="9.57"/><circle class="cls-8" cx="291.99" cy="238.59" r="6.12"/><circle class="cls-9" cx="291.99" cy="238.59" r="3.19"/><path class="cls-7" d="M269.59,235.66s-7,27.52-10.37,29.92-16-4.59-24.33-4.19-68.4,8.38-78.37,7.38c0,0-8.78-5.38-13.76-5.18S269.59,235.66,269.59,235.66Z"/><path class="cls-1" d="M.5,249.34a56.1,56.1,0,1,0,56.11-56.1A56.11,56.11,0,0,0,.5,249.34Zm22.87,0a33.24,33.24,0,1,1,33.24,33.24A33.23,33.23,0,0,1,23.37,249.34Z"/><path class="cls-2" d="M17.78,249.34a38.82,38.82,0,1,0,38.82-38.82A38.82,38.82,0,0,0,17.78,249.34Zm5.05,0a33.77,33.77,0,1,1,33.77,33.77A33.77,33.77,0,0,1,22.83,249.34Z"/><path class="cls-3" d="M20.44,249.34a36.16,36.16,0,1,0,36.17-36.16A36.16,36.16,0,0,0,20.44,249.34Zm18.88-25,7.45,24.2-18.61-1.86A21.64,21.64,0,0,1,30,235.51C32.67,229.93,39.32,224.34,39.32,224.34Zm28.33-2.73L53.4,242.77,43,222.5a33.26,33.26,0,0,1,10.64-3.74C59.78,217.76,67.65,221.61,67.65,221.61Zm17.94,22.67-23.72-2.2,9.82-18.15a23.57,23.57,0,0,1,9.22,7.39C84.46,236.38,85.59,244.28,85.59,244.28ZM76,272.72,65.7,249.38l20.48,0a23.57,23.57,0,0,1-1.39,11.74C82.38,266.85,76,272.72,76,272.72Zm-29.92,3.16,15.68-20.12,9.67,18.05a23.56,23.56,0,0,1-11,4.34C54.27,278.72,46.07,275.87,46.07,275.87Zm-18.3-24,25.38,2.52L43,272.2a23.54,23.54,0,0,1-9.54-7C29.73,260.33,27.77,251.87,27.77,251.87Z"/><polygon class="cls-7" points="77.41 203.23 58.27 247.63 49.76 244.97 69.97 196.31 77.41 203.23"/><rect class="cls-10" x="48.01" y="257.27" width="4.79" height="2.16" transform="translate(-204.82 193.96) rotate(-64.8)"/><rect class="cls-10" x="44.65" y="255.69" width="4.79" height="2.16" transform="translate(-205.21 189.6) rotate(-64.71)"/><path class="cls-10" d="M45.5,254c0,2.92,8,4.52,8,4.52s10.9-18.61,12-24.73L54.81,229s-1.86-.26-1.86.8S45.5,251.09,45.5,254Zm3.72.27a1.33,1.33,0,1,1,1.33,1.33A1.33,1.33,0,0,1,49.23,254.28Z"/><path class="cls-9" d="M282.16,178.72s-59,26.63-61.69,26.37-10.1,3.72-10.1,3.72S179,221.57,162.5,222.37s-31.91-1.06-58.5-28.18c0,0-25-25-30.58-20.74s23.13,47.33,35.63,53.18,59,22.6,73.66,18.35,73.12-23.67,83.23-34.3S282.16,178.72,282.16,178.72Z"/><path class="cls-9" d="M282.16,178.72s-39.88,12.54-43.87,12-17.82,0-19.14-1.86c0,0-6.38,10.37-8,14.36s-3.19,9.84-4.26,12-6.38,3.19-5.32,5.05,12.23,1.86,18.88.26,40.95-19.67,48.13-24.73S282.16,178.72,282.16,178.72Z"/><path class="cls-9" d="M143.36,1.94h-3.19s4.19,22.93,5.38,23.73,3,1,3-.2S143.75,10.31,143.36,1.94Z"/><path class="cls-9" d="M144.15,23.08s-4.39,5.58-3.59,10c0,0-2.79-6.78-2-12.76S144.15,23.08,144.15,23.08Z"/><path class="cls-9" d="M140.16,1.94s-4.79,15.55-3.59,18.35,9,5.38,9,5.38Z"/><rect class="cls-9" x="129.16" y="71" width="10.37" height="20.49" transform="translate(6.39 172.22) rotate(-66.58)"/><path class="cls-9" d="M125,77.72l21.54,10.37s-22.07,36.69-21,37.49,10.9-.27,12.23,3.72-12.9,30-12.63,37.23,10.24,55.84,11.83,58,2.92,6.11-1.6,5.32-25.26-15.42-37.22-30.58S74,177.17,72.89,176.9s-6.91-1.06-3.72-11.44S125,77.72,125,77.72Z"/><path class="cls-9" d="M120.22,124.52s1.86,4.78,5.59,4.78,9.84-3.19,12,0-15,31.11-12.63,37.23-38.69-16-45.33-17.55,27.12-27.12,30.58-28.45S120.22,124.52,120.22,124.52Z"/><path class="cls-11" d="M156.38,39.16s2.66,18.62,1.86,19.68c-.2.27-11.17,26.86-11.17,26.86L123.94,75.06s3.72-5.05-.79-8.51c-4.83-3.69-11-1.64-12-2.13-3.19-1.59,13.29-22.33,25-26.32S154.79,36.24,156.38,39.16Z"/><path class="cls-1" d="M159.71,57.38s.4-17.55-7.58-19.14S130.19,53.79,127.4,55s-24.33,16-25.92,15.16S97.89,61,105.46,47,129,29.86,137,30.25s16.35,2,19.14,5.59S159.71,57.38,159.71,57.38Z"/><path class="cls-12" d="M129.6,40.42c1-.66-22.34,2.79-22.73,4.38S100.08,60,100.08,63.56s11.56-2,12.76-4S115.64,49.6,129.6,40.42Z"/><circle class="cls-13" cx="154.12" cy="47.41" r="7.18"/><path class="cls-13" d="M166.49,46.21l-10.77-2.39s-3.59.8-3.59,3.19,2.39,5.59,2.39,5.59l10,1.2Z"/><ellipse class="cls-13" cx="168.48" cy="50.8" rx="3.99" ry="4.99"/><ellipse class="cls-13" cx="168.95" cy="51.09" rx="2.26" ry="2.86"/><path class="cls-14" d="M137.24,49.8s2.66-1.06,5.85,3.46,1.33,7.45,1.33,7.45-3.72.8-4.52-1.07,1.33-2.92,1.33-2.92-1.06-3.19-3.46-3.19S133,52.46,133,50.86s6.38-3.72,7.71-2.92S137.24,49.8,137.24,49.8Z"/><path class="cls-1" d="M131.39,89.29c-1.59-3.59-8.77-8.38-12-7.18s-6,6-13.56,14.76S69.17,130,59.59,139.54,18.12,185.81,18.91,189.8s-1.2,6,5.58,3.19,12.77-8.78,21.94-8,60.63,47.46,64.61,53.84,6.78,10,6.38,24.73a127.55,127.55,0,0,0,37.09.4C174.87,261.19,269,236.46,269,236.46s36.29-48.26,68.2-65.41c0,0-6-8.37-12.36-8s-42.68,15.64-42.68,15.64S279,193,267.4,201.36s-61.82,45.87-112.48,38.29S73.16,181,72.76,170.25s40.76-38.28,48.13-51.72C127.67,106.17,131.39,89.29,131.39,89.29Z"/><path class="cls-1" d="M120.89,118.54h0c-2.39,0-48.93,25.79-68.47,40.55S18.12,185,23.7,193a4,4,0,0,1-4.39.8c-2.39-1.2-.8-.8-1.2-4s24.73-36.3,47.06-57,36.3-29.12,41.88-38.69,5.19-16.75,11.17-18.35,20.34,8.77,19.94,10S120.89,118.54,120.89,118.54Z"/><path class="cls-1" d="M223.39,151l-3.72-.92s8.77,18.08,6.91,22.33-7.44,13.56-7.44,16.49,8.77,2.93,8.77,2.93l12.23-21Z"/><path class="cls-1" d="M280.83,139.14S228.71,153.9,223.39,151s12,18.75,12,25.4S280.83,139.14,280.83,139.14Z"/><path class="cls-1" d="M384,94.2c.46-1.64-15.42-3.72-23.13,1.06s-39.35,22.34-48.13,26.32-58.5,26.86-69.4,40.42-17.55,28.45-19.94,31.38,63.55-5.05,73.39-13.56,11.43-23.13,20.21-30.58S379.74,109.36,384,94.2Z"/><path class="cls-1" d="M383.2,94.2c5.83-5.12.8,40.42-13,50.79s-33,26.06-33,26.06-7.44-3.19-13.83-2.13-30.58,13.56-30.58,13.56,6.38-18.88,12.23-25a208.08,208.08,0,0,1,25-21.27C338.53,130.1,350.49,122.92,383.2,94.2Z"/><path class="cls-9" d="M386.12,108s-17,19.68-17.28,21.27-2.92,3.72,0,7.18,8,1.33,8,1.33S382.93,131.43,386.12,108Z"/><path class="cls-15" d="M361.63,114.66c1.45,1.2,33.11-31.46,33.11-31.46s3.4-13.63,5.21-22.67c1-4.79-5.95-2.82-8.65-.82,0,0-21.53,17.1-30.21,25.76a77.78,77.78,0,0,0-10.09,12s17.53-16.6,17.69-16.1-22.91,22-22.83,23.5S376.38,81.35,377,82.28,360.29,113.56,361.63,114.66Z"/><path class="cls-9" d="M336.6,91.88c2.08.92-43.47,23.93-47.46,27.52s-17.35,22.73-17.35,22.73-41.48,11.77-49.86,9.37S207,133,209.43,128s12.3-22.2,20.08-23.6,25.13,3.39,42.68,3.19S333,90.28,336.6,91.88Z"/><path class="cls-9" d="M287.54,118.4s-64.62,12-67.41,11.57-10.7.27-10.7-1.93,2.39-4,0,0-2.66,21.67,14.29,23.87,48.66-10.37,48.66-10.37Z"/><path class="cls-9" d="M347.37,102.25s-7.78-10.37-10.77-10.37S287.54,117.4,286.94,119s-16.55,22.93-16.55,22.93S330.82,118.2,347.37,102.25Z"/><path class="cls-16" d="M338.35,151.7l-.68-1.41-1.49.72-1.35-2.82,1.49-.72-.68-1.41,1.41-.68-.74-1.55-1.41.68-.65-1.35,1.35-.65.68,1.41,1.52-.73-.68-1.41,1.41-.68-1.41-2.93L330,141.62l-.65-1.35,7.11-3.42.68,1.41,1.41-.68,1.35,2.82-1.41.68.68,1.41-1.41.68.75,1.55,1.41-.68.65,1.35-1.35.65-.69-1.44-1.52.73.69,1.44-1.44.69,1.41,2.93,7.2-3.46.65,1.35Z"/><path class="cls-16" d="M351.78,145.26l-1.35-2.82,1.41-.68-.68-1.42,1.41-.68-.72-1.49,1.46-.7-.7-1.46-1.46.7-.71-1.46-1.41.68-.68-1.41-1.41.68-.65-1.35,1.35-.65.68,1.41,1.41-.68.68,1.41,1.46-.7.7,1.46,1.46-.7-.7-1.47,1.49-.72-.68-1.41,1.41-.68-1.38-2.87,1.35-.65,1.35,2.82-1.41.68.68,1.41-1.44.69.7,1.47-1.46.7.71,1.46,1.46-.7.72,1.49,1.44-.69.68,1.42,1.41-.68L361,139l-1.35.65-.68-1.41-1.41.68-.69-1.44-1.49.72-.7-1.46-1.46.7.7,1.46-1.47.71.69,1.44-1.41.68,1.39,2.89Z"/><rect class="cls-9" x="407.91" y="216.32" width="1.59" height="7.41" transform="translate(142.72 600.44) rotate(-83.33)"/><path class="cls-9" d="M392.22,201.68l-62.75,35.9S322,247.15,322.56,249s4.25,10.9,5.58,11.43,14.89,2.13,15.42,1.33,62.22-39.09,62.22-39.09,3.72-7.18-.53-13S392.22,201.68,392.22,201.68Z"/><path class="cls-9" d="M323.09,250.08c.8,0,5.32,7.18,4.25,9.31s-16.86,7.32-20.74,6.12c-7.71-2.39-22.34-7.18-22.34-7.18s16.49.53,20.47,0S323.09,250.08,323.09,250.08Z"/><path class="cls-9" d="M390.63,201.95s7.71,5.58,9.57,8.78,5.32,13,5.32,13l-60.09,38.55s-4.52-9.31-7.71-13.56-8.24-11.17-8.24-11.17Z"/><rect class="cls-14" x="365.35" y="219.13" width="31.7" height="10.64" transform="translate(-60.91 239.5) rotate(-32.44)"/><circle class="cls-17" cx="390.1" cy="218.7" r="3.19"/><circle class="cls-17" cx="374.14" cy="229.6" r="3.19"/></g></svg>